# xmcd
#
# Track frame offsets:
#	150
#	19066
#	36644
#	56069
#	67678
#	88664
#	106865
#	125938
#	143624
#	163051
#	174683
#	195657
#
# Disc length: 2849 seconds
#
# Revision: 1
# Processed by: cddbd v1.5.2PL0 Copyright (c) Steve Scherf et al.
# Submitted via: audiograbber 1.83.01
#
DISCID=a90b1f0c
DTITLE=Various Artist - CB-20196
DYEAR=2000
DGENRE=Karaoke
TTITLE0=This Time Around (Vocals)
TTITLE1=Born To Fly (Vocals)
TTITLE2=Best Of Intentions (Vocals)
TTITLE3=New Money (Vocals)
TTITLE4=Once In A Lifetime Love (Vocals)
TTITLE5=You Won't Be Lonely Now (Vocals)
TTITLE6=This Time Around
TTITLE7=Born To Fly
TTITLE8=Best Of Intentions
TTITLE9=New Money
TTITLE10=Once In A Lifetime Love
TTITLE11=You Won't Be Lonely Now
EXTD=
EXTT0=
EXTT1=
EXTT2=
EXTT3=
EXTT4=
EXTT5=
EXTT6=
EXTT7=
EXTT8=
EXTT9=
EXTT10=
EXTT11=
PLAYORDER=
